<?xml version="1.0" encoding="UTF-8"?>
<svg width="21px" height="21px" viewBox="0 0 21 21" version="1.1" xmlns="http://www.w3.org/2000/svg" xmlns:xlink="http://www.w3.org/1999/xlink">
    <!-- Generator: Sketch 49.1 (51147) - http://www.bohemiancoding.com/sketch -->
    <title>remove copy 3</title>
    <desc>Created with Sketch.</desc>
    <defs></defs>
    <g id="Page-1" stroke="none" stroke-width="1" fill="none" fill-rule="evenodd">
        <g id="payment-method--no-action" transform="translate(-396.000000, -535.000000)" fill="#F45063" fill-rule="nonzero">
            <g id="remove-copy-3" transform="translate(406.142136, 545.142136) rotate(45.000000) translate(-406.142136, -545.142136) translate(396.142136, 535.142136)">
                <path d="M10,0 C4.47719027,0 0,4.47719027 0,10 C0,15.5228097 4.47719027,20 10,20 C15.5228097,20 20,15.5228097 20,10 C19.9940709,4.4796317 15.5203683,0.00592910714 10,0 Z M15.7733794,14.7237729 C15.9661939,14.9100636 16.0437546,15.1860564 15.9757984,15.4455586 C15.9078421,15.7050607 15.7050607,15.9078421 15.4455586,15.9757984 C15.1860564,16.0437546 14.9100636,15.9661939 14.7237729,15.7733794 L10,11.0496065 L5.27622707,15.7733794 C4.98501204,16.0546276 4.52200363,16.0506408 4.23568142,15.7643186 C3.9493592,15.4779964 3.94537241,15.014988 4.22662056,14.7237729 L8.9503935,10 L4.22662056,5.27622707 C4.03380611,5.08993641 3.95624541,4.81394357 4.02420164,4.55444141 C4.09215787,4.29493925 4.29493925,4.09215787 4.55444141,4.02420164 C4.81394357,3.95624541 5.08993641,4.03380611 5.27622707,4.22662056 L10,8.9503935 L14.7237729,4.22662056 C15.014988,3.94537241 15.4779964,3.9493592 15.7643186,4.23568142 C16.0506408,4.52200363 16.0546276,4.98501204 15.7733794,5.27622707 L11.0496065,10 L15.7733794,14.7237729 Z" id="Shape"></path>
            </g>
        </g>
    </g>
</svg>