<?xml version="1.0" encoding="UTF-8"?>
<svg width="32px" height="32px" viewBox="0 0 22 22" version="1.1" 
xmlns="http://www.w3.org/2000/svg" xmlns:xlink="http://www.w3.org/1999/xlink">
   
    <g id="Page-1" stroke="none" stroke-width="1" fill="none" fill-rule="evenodd">
        <g id="Desktop-HD-Copy-7" transform="translate(-41.000000, -95.000000)" 
           fill="#F45063" fill-rule="nonzero">
            <g id="Group-2" transform="translate(26.000000, 87.000000)">
                <g id="Group" transform="translate(15.000000, 8.000000)">
                    <g id="controls-(1)">
                        <path d="M0.416666667,20.24 L2.08333333,20.24 L2.08333333,21.56 C2.08333333,21.80332 2.27,22 2.5,22 C2.73,22 2.91666667,21.80332 2.91666667,21.56 L2.91666667,20.24 L4.58333333,20.24 C4.81333333,20.24 5,20.04332 5,19.8 L5,14.52 C5,14.27668 4.81333333,14.08 4.58333333,14.08 L2.91666667,14.08 L2.91666667,0.44 C2.91666667,0.19668 2.73,0 2.5,0 C2.27,0 2.08333333,0.19668 2.08333333,0.44 L2.08333333,14.08 L0.416666667,14.08 C0.186666667,14.08 0,14.27668 0,14.52 L0,19.8 C0,20.04332 0.186666667,20.24 0.416666667,20.24 Z M0.833333333,14.96 L4.16666667,14.96 L4.16666667,19.36 L0.833333333,19.36 L0.833333333,14.96 Z" id="Shape"></path>
                        <path d="M8.41666667,14.08 L10.0833333,14.08 L10.0833333,21.56 C10.0833333,21.80332 10.27,22 10.5,22 C10.73,22 10.9166667,21.80332 10.9166667,21.56 L10.9166667,14.08 L12.5833333,14.08 C12.8133333,14.08 13,13.88332 13,13.64 L13,8.36 C13,8.11668 12.8133333,7.92 12.5833333,7.92 L10.9166667,7.92 L10.9166667,0.44 C10.9166667,0.19668 10.73,0 10.5,0 C10.27,0 10.0833333,0.19668 10.0833333,0.44 L10.0833333,7.92 L8.41666667,7.92 C8.18666667,7.92 8,8.11668 8,8.36 L8,13.64 C8,13.88332 8.18666667,14.08 8.41666667,14.08 Z M8.83333333,8.8 L12.1666667,8.8 L12.1666667,13.2 L8.83333333,13.2 L8.83333333,8.8 Z" id="Shape"></path>
                        <path d="M17.4166667,7.92 L19.0833333,7.92 L19.0833333,21.56 C19.0833333,21.80332 19.27,22 19.5,22 C19.73,22 19.9166667,21.80332 19.9166667,21.56 L19.9166667,7.92 L21.5833333,7.92 C21.8133333,7.92 22,7.72332 22,7.48 L22,2.2 C22,1.95668 21.8133333,1.76 21.5833333,1.76 L19.9166667,1.76 L19.9166667,0.44 C19.9166667,0.19668 19.73,0 19.5,0 C19.27,0 19.0833333,0.19668 19.0833333,0.44 L19.0833333,1.76 L17.4166667,1.76 C17.1866667,1.76 17,1.95668 17,2.2 L17,7.48 C17,7.72332 17.1866667,7.92 17.4166667,7.92 Z M17.8333333,2.64 L21.1666667,2.64 L21.1666667,7.04 L17.8333333,7.04 L17.8333333,2.64 Z" id="Shape"></path>
                    </g>
                </g>
            </g>
        </g>
    </g>
</svg>