<svg aria-hidden="true" style="position: absolute; width: 0; height: 0; overflow: hidden;" version="1.1" xmlns="http://www.w3.org/2000/svg" xmlns:xlink="http://www.w3.org/1999/xlink">
<defs>
<symbol id="icon-google" viewBox="0 0 32 32">
<title>google</title>
<path fill="#4285f4" style="fill: var(--color1, #4285f4)" d="M16.32 13.713v5.487h9.075c-0.367 2.353-2.741 6.899-9.075 6.899-5.46 0-9.919-4.519-9.919-10.099s4.46-10.099 9.919-10.099c3.107 0 5.188 1.319 6.38 2.465l4.339-4.184c-2.787-2.601-6.4-4.183-10.719-4.183-8.847 0-16 7.153-16 16s7.153 16 16 16c9.235 0 15.36-6.492 15.36-15.635 0-1.051-0.113-1.853-0.252-2.652h-15.108z"></path>
</symbol>

<symbol id="icon-facebook" viewBox="0 0 32 32">
<title>facebook</title>
<path d="M19 6h5v-6h-5c-3.86 0-7 3.14-7 7v3h-4v6h4v16h6v-16h5l1-6h-6v-3c0-0.542 0.458-1 1-1z"></path>
</symbol>

<symbol id="icon-cart" viewBox="0 0 18 18">
<title>cart</title>
<path d="M14.312 9c0.695 0 1.299-0.478 1.459-1.154l1.181-4.982c0.237-0.947-0.479-1.864-1.455-1.864h-13.494c-0.552 0-0.999 0.448-0.999 1s0.448 1 0.999 1h1v8.5c0 0.829 0.671 1.5 1.499 1.5h10.496c0.552 0 0.999-0.448 0.999-1s-0.447-1-0.999-1h-9.996v-2h9.31zM5.002 3h9.863l-0.948 4h-8.915v-4zM5.502 14c-0.828 0-1.5 0.671-1.5 1.5s0.671 1.5 1.5 1.5 1.5-0.671 1.5-1.5-0.671-1.5-1.5-1.5zM13.498 14c-0.828 0-1.499 0.671-1.499 1.5s0.671 1.5 1.499 1.5 1.5-0.671 1.5-1.5-0.671-1.5-1.5-1.5z"></path>
</symbol>

<symbol id="icon-envelope" viewBox="0 0 28 28">
<title>envelope</title>
<path d="M28 11.094v12.406c0 1.375-1.125 2.5-2.5 2.5h-23c-1.375 0-2.5-1.125-2.5-2.5v-12.406c0.469 0.516 1 0.969 1.578 1.359 2.594 1.766 5.219 3.531 7.766 5.391 1.313 0.969 2.938 2.156 4.641 2.156h0.031c1.703 0 3.328-1.188 4.641-2.156 2.547-1.844 5.172-3.625 7.781-5.391 0.562-0.391 1.094-0.844 1.563-1.359zM28 6.5c0 1.75-1.297 3.328-2.672 4.281-2.438 1.687-4.891 3.375-7.313 5.078-1.016 0.703-2.734 2.141-4 2.141h-0.031c-1.266 0-2.984-1.437-4-2.141-2.422-1.703-4.875-3.391-7.297-5.078-1.109-0.75-2.688-2.516-2.688-3.938 0-1.531 0.828-2.844 2.5-2.844h23c1.359 0 2.5 1.125 2.5 2.5z"></path>
</symbol>
<symbol id="icon-locked" viewBox="0 0 32 32">
<title>locked</title>
<path d="M29 32h-26c-0.552 0-1-0.447-1-1v-16c0-0.553 0.448-1 1-1h3v-4c0-5.523 4.477-10 10-10s10 4.477 10 10v4h3c0.553 0 1 0.447 1 1v16c0 0.553-0.447 1-1 1zM22 9.5c0-3.038-2.687-5.5-6-5.5s-6 2.462-6 5.5v4.5h12v-4.5z"></path>
</symbol>

<symbol id="icon-search" viewBox="0 0 32 32">
<title>search</title>
<path d="M31.008 27.231l-7.58-6.447c-0.784-0.705-1.622-1.029-2.299-0.998 1.789-2.096 2.87-4.815 2.87-7.787 0-6.627-5.373-12-12-12s-12 5.373-12 12 5.373 12 12 12c2.972 0 5.691-1.081 7.787-2.87-0.031 0.677 0.293 1.515 0.998 2.299l6.447 7.58c1.104 1.226 2.907 1.33 4.007 0.23s0.997-2.903-0.23-4.007zM12 20c-4.418 0-8-3.582-8-8s3.582-8 8-8 8 3.582 8 8-3.582 8-8 8z"></path>
</symbol>

<symbol id="icon-my_location" viewBox="0 0 24 24">
<title>my_location</title>
<path d="M12 18.984c3.891 0 6.984-3.094 6.984-6.984s-3.094-6.984-6.984-6.984-6.984 3.094-6.984 6.984 3.094 6.984 6.984 6.984zM20.953 11.016h2.063v1.969h-2.063c-0.469 4.172-3.797 7.5-7.969 7.969v2.063h-1.969v-2.063c-4.172-0.469-7.5-3.797-7.969-7.969h-2.063v-1.969h2.063c0.469-4.172 3.797-7.5 7.969-7.969v-2.063h1.969v2.063c4.172 0.469 7.5 3.797 7.969 7.969zM12 8.016c2.203 0 3.984 1.781 3.984 3.984s-1.781 3.984-3.984 3.984-3.984-1.781-3.984-3.984 1.781-3.984 3.984-3.984z"></path>
</symbol>

<symbol id="icon-check1" viewBox="0 0 24 24">
<title>check1</title>
<path d="M20.7 5.3c-0.4-0.4-1-0.4-1.4 0l-10.3 10.3-4.3-4.3c-0.4-0.4-1-0.4-1.4 0s-0.4 1 0 1.4l5 5c0.2 0.2 0.4 0.3 0.7 0.3s0.5-0.1 0.7-0.3l11-11c0.4-0.4 0.4-1 0-1.4z"></path>
</symbol>

<symbol id="icon-filter" viewBox="0 0 32 32">
<title>filter</title>
<path d="M16 0c-8.837 0-16 2.239-16 5v3l12 12v10c0 1.105 1.791 2 4 2s4-0.895 4-2v-10l12-12v-3c0-2.761-7.163-5-16-5zM2.95 4.338c0.748-0.427 1.799-0.832 3.040-1.171 2.748-0.752 6.303-1.167 10.011-1.167s7.262 0.414 10.011 1.167c1.241 0.34 2.292 0.745 3.040 1.171 0.494 0.281 0.76 0.519 0.884 0.662-0.124 0.142-0.391 0.38-0.884 0.662-0.748 0.427-1.8 0.832-3.040 1.171-2.748 0.752-6.303 1.167-10.011 1.167s-7.262-0.414-10.011-1.167c-1.24-0.34-2.292-0.745-3.040-1.171-0.494-0.282-0.76-0.519-0.884-0.662 0.124-0.142 0.391-0.38 0.884-0.662z"></path>
</symbol>

<symbol id="icon-cross" viewBox="0 0 20 20">
<title>cross</title>
<path d="M14.348 14.849c-0.469 0.469-1.229 0.469-1.697 0l-2.651-3.030-2.651 3.029c-0.469 0.469-1.229 0.469-1.697 0-0.469-0.469-0.469-1.229 0-1.697l2.758-3.15-2.759-3.152c-0.469-0.469-0.469-1.228 0-1.697s1.228-0.469 1.697 0l2.652 3.031 2.651-3.031c0.469-0.469 1.228-0.469 1.697 0s0.469 1.229 0 1.697l-2.758 3.152 2.758 3.15c0.469 0.469 0.469 1.229 0 1.698z"></path>
</symbol>

<symbol id="icon-star-outlined" viewBox="0 0 20 20">
<title>star-outlined</title>
<path d="M18.8 8.022h-6.413l-2.387-6.722-2.389 6.722h-6.412l5.232 3.947-1.871 6.929 5.44-4.154 5.438 4.154-1.869-6.929 5.231-3.947zM10 12.783l-3.014 2.5 1.243-3.562-2.851-2.3 3.522 0.101 1.1-4.040 1.099 4.040 3.521-0.101-2.851 2.3 1.243 3.562-3.012-2.5z"></path>
</symbol>

<symbol id="icon-star" viewBox="0 0 20 20">
<title>star</title>
<path d="M10 1.3l2.388 6.722h6.412l-5.232 3.948 1.871 6.928-5.439-4.154-5.438 4.154 1.87-6.928-5.233-3.948h6.412l2.389-6.722z"></path>
</symbol>

<symbol id="icon-star-half-empty" viewBox="0 0 26 28">
<title>star-half-empty</title>
<path d="M18.531 14.953l4.016-3.906-6.594-0.969-0.469-0.938-2.484-5.031v15.047l0.922 0.484 4.969 2.625-0.938-5.547-0.187-1.031zM25.594 10.859l-5.672 5.531 1.344 7.812c0.109 0.688-0.141 1.094-0.625 1.094-0.172 0-0.391-0.063-0.625-0.187l-7.016-3.687-7.016 3.687c-0.234 0.125-0.453 0.187-0.625 0.187-0.484 0-0.734-0.406-0.625-1.094l1.344-7.812-5.688-5.531c-0.672-0.672-0.453-1.328 0.484-1.469l7.844-1.141 3.516-7.109c0.203-0.422 0.484-0.641 0.766-0.641v0c0.281 0 0.547 0.219 0.766 0.641l3.516 7.109 7.844 1.141c0.938 0.141 1.156 0.797 0.469 1.469z"></path>
</symbol>

<symbol id="icon-dollar" viewBox="0 0 16 28">
<title>dollar</title>
<path d="M15.281 18.516c0 3.187-2.281 5.703-5.594 6.25v2.734c0 0.281-0.219 0.5-0.5 0.5h-2.109c-0.266 0-0.5-0.219-0.5-0.5v-2.734c-3.656-0.516-5.656-2.703-5.734-2.797-0.156-0.187-0.172-0.453-0.031-0.641l1.609-2.109c0.078-0.109 0.219-0.172 0.359-0.187s0.281 0.031 0.375 0.141c0.031 0.016 2.219 2.109 4.984 2.109 1.531 0 3.187-0.812 3.187-2.578 0-1.5-1.844-2.234-3.953-3.078-2.812-1.109-6.312-2.516-6.312-6.438 0-2.875 2.25-5.25 5.516-5.875v-2.812c0-0.281 0.234-0.5 0.5-0.5h2.109c0.281 0 0.5 0.219 0.5 0.5v2.75c3.172 0.359 4.859 2.078 4.922 2.141 0.156 0.172 0.187 0.406 0.078 0.594l-1.266 2.281c-0.078 0.141-0.203 0.234-0.359 0.25-0.156 0.031-0.297-0.016-0.422-0.109-0.016-0.016-1.906-1.687-4.25-1.687-1.984 0-3.359 0.984-3.359 2.406 0 1.656 1.906 2.391 4.125 3.25 2.875 1.109 6.125 2.375 6.125 6.141z"></path>
</symbol>

<symbol id="icon-directions_walk" viewBox="0 0 24 24">
<title>directions_walk</title>
<path d="M9.797 8.906l-2.813 14.109h2.109l1.828-8.016 2.063 2.016v6h2.016v-7.5l-2.109-2.016 0.609-3c1.313 1.5 3.281 2.484 5.484 2.484v-1.969c-1.922 0-3.469-1.031-4.266-2.438l-1.031-1.594c-0.422-0.609-0.984-0.984-1.688-0.984-0.281 0-0.516 0.094-0.797 0.094l-5.203 2.203v4.688h2.016v-3.375l1.781-0.703zM13.5 5.484c-1.078 0-2.016-0.891-2.016-1.969s0.938-2.016 2.016-2.016 2.016 0.938 2.016 2.016-0.938 1.969-2.016 1.969z"></path>
</symbol>

<symbol id="icon-circle-o" viewBox="0 0 24 28">
<title>circle-o</title>
<path d="M12 5.5c-4.688 0-8.5 3.813-8.5 8.5s3.813 8.5 8.5 8.5 8.5-3.813 8.5-8.5-3.813-8.5-8.5-8.5zM24 14c0 6.625-5.375 12-12 12s-12-5.375-12-12 5.375-12 12-12v0c6.625 0 12 5.375 12 12z"></path>
</symbol>

<symbol id="icon-circle" viewBox="0 0 24 28">
<title>circle</title>
<path d="M24 14c0 6.625-5.375 12-12 12s-12-5.375-12-12 5.375-12 12-12 12 5.375 12 12z"></path>
</symbol>

<symbol id="icon-half-moon" viewBox="0 0 32 32">
<title>half-moon</title>
<path d="M16 22v0c3.314 0 6-2.686 6-6s-2.686-6-6-6c-3.314 0-6 2.686-6 6s2.686 6 6 6zM16 21v-10c2.761 0 5 2.239 5 5s-2.239 5-5 5v0z"></path>
</symbol>

<symbol id="icon-minus" viewBox="0 0 20 20">
<title>minus</title>
<path d="M16 10c0 0.553-0.048 1-0.601 1h-10.798c-0.552 0-0.601-0.447-0.601-1s0.049-1 0.601-1h10.799c0.552 0 0.6 0.447 0.6 1z"></path>
</symbol>

<symbol id="icon-plus" viewBox="0 0 20 20">
<title>plus</title>
<path d="M16 10c0 0.553-0.048 1-0.601 1h-4.399v4.399c0 0.552-0.447 0.601-1 0.601s-1-0.049-1-0.601v-4.399h-4.399c-0.552 0-0.601-0.447-0.601-1s0.049-1 0.601-1h4.399v-4.399c0-0.553 0.447-0.601 1-0.601s1 0.048 1 0.601v4.399h4.399c0.553 0 0.601 0.447 0.601 1z"></path>
</symbol>

<symbol id="icon-sort" viewBox="0 0 24 24">
<title>sort</title>
<path d="M3 12.984v-1.969h12v1.969h-12zM3 6h18v2.016h-18v-2.016zM3 18v-2.016h6v2.016h-6z"></path>
</symbol>

</defs>
</svg>

